<svg width="32" height="32" viewBox="0 50 1001 900" fill="none" xmlns="http://www.w3.org/2000/svg">
<path transform="scale(1.1) translate(-50, -50)" d="M761.39 110.958C686.916 73.6525 599.803 55 500.051 55C400.299 55 312.778 73.6525 237.489 110.958C224.442 117.481 212.007 124.412 199.98 131.343L332.484 263.847L339.313 260.382C389.785 237.263 444.857 225.935 500.357 227.256C555.837 225.78 610.911 237.116 661.299 260.382C662.726 261.095 664.153 261.707 665.478 262.522L797.167 130.629C785.751 123.596 773.825 117.073 761.39 110.958ZM937.723 267.313C919.287 237.574 897.049 210.367 871.573 186.383L739.069 318.887C749.297 330.205 758.347 342.533 766.079 355.683C791.973 399.512 805.04 449.731 803.792 500.622C805.04 551.514 791.973 601.733 766.079 645.562C759.726 656.379 752.427 666.611 744.267 676.14L876.771 808.644C900.025 786.4 920.492 761.415 937.723 734.238C979.649 667.238 1000.58 589.094 1000.51 499.807C1000.44 410.519 979.513 333.021 937.723 267.313ZM672.714 734.034C668.943 736.072 665.07 738.009 661.095 739.945C610.707 763.211 555.633 774.547 500.153 773.072C444.654 774.392 389.581 763.064 339.109 739.945C334.217 737.601 329.528 735.155 324.941 732.607L193.66 864.296C207.97 873.489 222.771 881.893 237.998 889.472C313.356 926.777 400.877 945.429 500.561 945.429C600.245 945.429 687.188 926.777 761.39 889.472C776.079 882.297 790.369 874.335 804.199 865.621L672.714 734.034ZM232.902 645.154C207.742 601.071 195.09 550.957 196.31 500.215C195.09 449.472 207.742 399.358 232.902 355.275C240.438 342.755 249.104 330.95 258.791 320.009L126.796 188.218C102.292 211.853 80.7934 238.419 62.7867 267.313C20.9289 333.565 0 411.199 0 500.215C0 589.23 20.9289 667.374 62.7867 734.645C79.4254 760.926 98.9463 785.268 120.987 807.217L253.491 674.713C245.889 665.395 239.006 655.514 232.902 645.154Z" fill="#03F7B5"/>
</svg>
