<svg width="32" height="32" viewBox="0 0 32 32" fill="none" xmlns="http://www.w3.org/2000/svg">
<path d="M20.7115 22.6815L20.6927 18.5384C17.997 20.8073 15.3172 22.2827 14.1581 22.9474L15.1371 25.6581C15.167 25.7425 15.2152 25.8193 15.2784 25.8828C15.3428 25.9467 15.4205 25.9958 15.5058 26.0267C15.5909 26.0572 15.6817 26.0683 15.7717 26.0594C15.8616 26.0505 15.9484 26.0218 16.0259 25.9753L20.1924 23.6039C20.3513 23.5081 20.4826 23.3728 20.5736 23.2111C20.6646 23.0495 20.7121 22.867 20.7115 22.6815Z" fill="#FF7134"/>
<path d="M9.32175 11.288C9.1356 11.2863 8.95224 11.3333 8.78996 11.4246C8.62769 11.5158 8.49217 11.648 8.39693 11.808L6.02511 15.9714C5.97803 16.0484 5.94883 16.135 5.93967 16.2247C5.93051 16.3145 5.94163 16.4052 5.97219 16.4901C6.00155 16.5765 6.05042 16.6551 6.11501 16.7196C6.17875 16.7829 6.2558 16.8312 6.34056 16.861L9.05078 17.8405C9.75037 16.62 11.2098 13.9756 13.4592 11.3044L9.32175 11.288Z" fill="#FF7134"/>
<path d="M11.8833 23.305C11.8773 23.2543 11.8544 23.207 11.8183 23.1708L8.82879 20.1813C8.79871 20.1512 8.76076 20.1302 8.71929 20.1206C7.79463 19.9072 6.51372 20.641 6.18121 21.5748C6.13452 21.7139 6.09625 21.8558 6.06661 21.9996C6.05035 22.0703 6.03441 22.1411 6.01592 22.2112C5.81116 22.976 5.3124 23.6287 4.62837 24.0273C4.58921 24.0499 4.5577 24.0837 4.53789 24.1244C4.51808 24.165 4.51087 24.2107 4.5172 24.2555C4.52352 24.3003 4.54308 24.3422 4.57336 24.3758C4.60365 24.4094 4.64329 24.4332 4.68719 24.4441C5.08944 24.5398 5.50683 24.5537 5.91456 24.485C6.3223 24.4163 6.71208 24.2664 7.06077 24.0441C7.15 24.3573 7.12792 24.6917 6.99828 24.9903C6.80786 25.3997 6.55076 25.7745 6.23748 26.0996C6.20981 26.1313 6.19159 26.1702 6.18488 26.2118C6.17818 26.2534 6.18326 26.296 6.19954 26.3348C6.21564 26.3738 6.24227 26.4075 6.27645 26.4322C6.31063 26.4568 6.35101 26.4715 6.39305 26.4745C7.06026 26.5621 7.73519 26.3841 8.27234 25.9787C8.45488 25.8263 8.62423 25.6588 8.77858 25.4779C9.0266 25.205 9.281 24.9248 9.52536 24.845C9.47143 25.2389 9.36984 25.6248 9.22282 25.9942C9.20677 26.0345 9.20262 26.0786 9.21087 26.1212C9.21912 26.1638 9.23942 26.2032 9.26937 26.2346L9.27287 26.2381C9.30308 26.2683 9.34122 26.2894 9.3829 26.299C9.42458 26.3085 9.4681 26.3061 9.50846 26.292C9.61526 26.2556 12.1221 25.3539 11.8833 23.305Z" fill="#FF7134"/>
<path d="M18.4556 7.45893C22.7938 5.18804 25.8518 5.86738 25.9914 5.89211C26.0386 5.90049 26.0818 5.92322 26.1157 5.95702C26.1497 5.991 26.1729 6.03469 26.1813 6.082C26.2059 6.22141 26.813 9.20732 24.542 13.5453C24.4354 13.7432 24.4948 13.645 24.3728 13.8471C23.7374 14.8546 22.9844 15.7834 22.1299 16.6133C18.6052 20.138 13.7258 22.6734 13.4513 22.8226C13.4088 22.8466 13.3594 22.8561 13.3111 22.8495C13.2627 22.8429 13.2179 22.8199 13.1834 22.7853L12.854 22.4559L12.2629 23.047L8.95249 19.7366L9.54358 19.1455L9.2142 18.8161C9.17949 18.7812 9.15692 18.7357 9.14998 18.687C9.14314 18.6383 9.1519 18.5886 9.17553 18.5455C9.3633 18.2034 13.4787 10.4478 18.1525 7.62673C18.3553 7.50546 18.2584 7.56639 18.4556 7.45893ZM20.019 11.9819C19.639 11.6026 19.1237 11.3896 18.5868 11.3894C18.0499 11.3894 17.5347 11.6027 17.1546 11.9819C16.8714 12.2652 16.6776 12.6262 16.5995 13.0191C16.5214 13.4119 16.5622 13.8189 16.7155 14.1889C16.8687 14.5589 17.1282 14.8751 17.4612 15.0976C17.7943 15.3201 18.1856 15.4394 18.5861 15.4394C18.9867 15.4394 19.3786 15.3209 19.7117 15.0983C20.0447 14.8758 20.3042 14.5595 20.4575 14.1896C20.6108 13.8195 20.6509 13.4119 20.5728 13.0191C20.4947 12.6263 20.3021 12.2651 20.019 11.9819Z" fill="white"/>
</svg>
